<?xml version="1.0" encoding="UTF-8"?>
<svg width="160px" height="90px" viewBox="0 0 160 90" version="1.1" xmlns="http://www.w3.org/2000/svg" xmlns:xlink="http://www.w3.org/1999/xlink">
    <!-- Generator: Sketch 50.2 (55047) - http://www.bohemiancoding.com/sketch -->
    <title>Artboard</title>
    <desc>Created with Sketch.</desc>
    <defs></defs>
    <g id="Artboard" stroke="none" stroke-width="1" fill="none" fill-rule="evenodd">
        <g id="Group" transform="translate(58.000000, 14.000000)" fill="#000000">
            <g id="Wheel" fill-rule="nonzero">
                <path d="M22.4995303,20.106383 C21.1796591,20.106383 20.106383,21.1797644 20.106383,22.4992954 C20.106383,23.8202356 21.1796591,24.893617 22.4995303,24.893617 C23.8194015,24.893617 24.893617,23.8202356 24.893617,22.4992954 C24.893617,21.1797644 23.8194015,20.106383 22.4995303,20.106383 Z M22.5,23.470271 C21.9635968,23.470271 21.5286499,23.0362209 21.5286499,22.4997651 C21.5286499,21.9633093 21.9640665,21.5283197 22.5,21.5283197 C23.0359335,21.5283197 23.4704107,21.9637791 23.4704107,22.4997651 C23.4704107,23.0376302 23.0368729,23.470271 22.5,23.470271 Z" id="Shape"></path>
                <path d="M22.4992479,1.91489362 C11.1488465,1.91489362 1.91489362,11.1493479 1.91489362,22.4997493 C1.91489362,33.8501507 11.1488465,43.0851064 22.4992479,43.0851064 C33.8501507,43.0851064 43.0851064,33.8501507 43.0851064,22.4997493 C43.0851064,11.1488465 33.8501507,1.91489362 22.4992479,1.91489362 Z M42.3680911,23.0603248 C42.2793417,26.2407638 41.4439939,29.2371855 40.0245043,31.8786095 L26.2573103,23.4634579 L42.3680911,23.0603248 Z M26.2573103,21.4497983 L39.9914113,13.0552045 C41.418422,15.6876031 42.2632966,18.6785093 42.3655841,21.8534328 L26.2573103,21.4497983 Z M39.3806948,12.0132761 L25.2504805,19.7063983 L32.9380872,5.58771643 C35.5479224,7.20425988 37.757633,9.40795357 39.3806948,12.0132761 Z M22.4987465,19.7690745 C23.9819151,19.7690745 25.1878043,20.9744623 25.1878043,22.4561267 C25.1878043,23.9387939 23.9819151,25.1446831 22.4987465,25.1446831 C21.0165807,25.1446831 19.8111929,23.9387939 19.8111929,22.4561267 C19.8111929,20.9744623 21.0165807,19.7690745 22.4987465,19.7690745 Z M13.1083539,4.98050982 C15.7402511,3.56402867 18.7266446,2.72817943 21.8970554,2.63241027 L21.4944237,18.7000699 L13.1083539,4.98050982 Z M23.1049503,2.63241027 C26.2738568,2.72767802 29.2597489,3.56453008 31.8911447,4.98101123 L23.5075819,18.6985657 L23.1049503,2.63241027 Z M21.4944237,26.2131863 L21.899061,42.3670883 C18.7126052,42.272322 15.7106679,41.4279488 13.0682412,39.9979296 L21.4944237,26.2131863 Z M23.5085847,26.2141891 L31.9327617,39.9969268 C29.2903349,41.4274474 26.2899019,42.2708177 23.1044489,42.3670883 L23.5085847,26.2141891 Z M12.0629156,5.5862122 L19.7505223,19.7074011 L5.6183024,12.0132761 C7.24236698,9.40795357 9.45157617,7.20325706 12.0629156,5.5862122 Z M2.63341308,21.8539342 C2.73519916,18.6790107 3.58057517,15.6876031 5.00808733,13.0547031 L18.7431911,21.4497983 L2.63341308,21.8539342 Z M18.7426897,23.4639593 L4.97449291,31.8796123 C3.55550471,29.2391911 2.72015689,26.2412652 2.63140745,23.0603248 L18.7426897,23.4639593 Z M5.57718684,32.923045 L19.7500209,25.2073593 L12.0283184,39.390723 C9.41096202,37.7621457 7.19824297,35.5454154 5.57718684,32.923045 Z M32.9726845,39.3912244 L25.2504805,25.2073593 L39.4213089,32.9225435 C37.801757,35.5444126 35.5885366,37.7616443 32.9726845,39.3912244 Z" id="Shape"></path>
                <path d="M22.4997499,0 C10.0932195,0 0,10.0937198 0,22.5002501 C0,34.9062802 10.0932195,45 22.4997499,45 C34.9062802,45 45,34.9062802 45,22.5002501 C45,10.0937198 34.9062802,0 22.4997499,0 Z M22.4997499,43.1714638 C11.1012907,43.1714638 1.82803589,33.8977087 1.82803589,22.4997499 C1.82803589,11.1012907 11.1012907,1.82803589 22.4997499,1.82803589 C33.8977087,1.82803589 43.1714638,11.1012907 43.1714638,22.4997499 C43.1714638,33.8977087 33.8977087,43.1714638 22.4997499,43.1714638 Z" id="Shape"></path>
            </g>
            <path d="M1,62.8390805 L1,62.3563218 L1.88505747,62.1724138 C2.05747126,62.137931 2.11494253,62.0689655 2.11494253,61.9310345 L2.11494253,55.9310345 C2.11494253,55.8045977 2.05747126,55.7356322 1.88505747,55.7011494 L1,55.5172414 L1,55.0344828 L4.77011494,55.0344828 L4.77011494,55.5057471 L3.93103448,55.6896552 C3.68965517,55.7471264 3.62068966,55.8505747 3.62068966,56.0344828 L3.62068966,61.8735632 C3.62068966,62.2413793 3.71264368,62.3333333 4.18390805,62.3333333 L5.49425287,62.3333333 C6.12643678,62.3333333 6.34482759,62.1954023 6.6091954,61.5402299 L7.11494253,60.3103448 L7.72413793,60.3103448 L7.6091954,62.8390805 L1,62.8390805 Z M10.6206897,62.3908046 C11.2183908,62.3908046 11.7241379,61.8850575 11.7241379,61.1724138 L11.7241379,59.9655172 C10.6666667,60.1609195 9.86206897,60.4597701 9.86206897,61.5632184 C9.86206897,62.0689655 10.1264368,62.3908046 10.6206897,62.3908046 Z M13.0344828,62.9310345 C12.4827586,62.9310345 12.0804598,62.6896552 11.9425287,62.0574713 C11.5747126,62.6436782 10.8735632,63 10.1149425,63 C9.10344828,63 8.51724138,62.4942529 8.51724138,61.6666667 C8.51724138,60.2068966 10.2873563,59.7241379 11.7356322,59.5402299 L11.7356322,58.6321839 C11.7356322,57.8850575 11.4252874,57.5402299 10.7356322,57.5402299 C10.2643678,57.5402299 9.88505747,57.7126437 9.65517241,57.954023 C10.0114943,57.9770115 10.2298851,58.2413793 10.2298851,58.6206897 C10.2298851,59.045977 9.91954023,59.3103448 9.49425287,59.3103448 C9.05747126,59.3103448 8.75862069,59.0114943 8.75862069,58.5057471 C8.75862069,57.7356322 9.64367816,57.091954 10.8505747,57.091954 C12.2413793,57.091954 13.0229885,57.6896552 13.0229885,58.9885057 C13.0229885,59.8045977 13,60.8965517 13,61.7126437 C13,62.1954023 13.1264368,62.3448276 13.3678161,62.3448276 C13.6551724,62.3448276 13.7816092,62.0689655 13.8735632,61.4252874 L14.2298851,61.4482759 C14.1264368,62.4597701 13.816092,62.9310345 13.0344828,62.9310345 Z M20.3793103,58.8390805 C21.5172414,58.8390805 22.1149425,58.3563218 22.1149425,57.1264368 C22.1149425,55.8275862 21.5287356,55.5172414 20.3448276,55.5172414 C20.0574713,55.5172414 19.7931034,55.5287356 19.5632184,55.5517241 L19.5632184,58.816092 C19.8505747,58.8275862 20.1034483,58.8390805 20.3793103,58.8390805 Z M20.7011494,62.3563218 L20.7011494,62.8390805 L16.9425287,62.8390805 L16.9425287,62.3563218 L17.8275862,62.1724138 C18,62.137931 18.0574713,62.0689655 18.0574713,61.9310345 L18.0574713,55.9425287 C18.0574713,55.816092 18,55.7471264 17.8275862,55.7126437 L16.9425287,55.5287356 L16.9425287,55.045977 L17.5172414,55.045977 C18.091954,55.045977 19.4022989,55.0114943 20.3218391,55.0114943 C22.3333333,55.0114943 23.7126437,55.5862069 23.7126437,57.091954 C23.7126437,58.1494253 22.8850575,58.7701149 21.9655172,59.0229885 C22.1609195,59.2183908 22.3793103,59.5287356 22.6091954,60.0229885 L23.4712644,61.816092 C23.5747126,62.0229885 23.6896552,62.1149425 23.8735632,62.1494253 L24.7356322,62.3563218 L24.7356322,62.8390805 L22.2413793,62.8390805 L20.8045977,59.3103448 C20.6551724,59.3333333 20.4942529,59.3333333 20.3563218,59.3333333 C20.091954,59.3333333 19.816092,59.3218391 19.5632184,59.2873563 L19.5632184,61.9195402 C19.5632184,62.0574713 19.6091954,62.1264368 19.7931034,62.1609195 L20.7011494,62.3563218 Z M27.3448276,62.3908046 C27.9425287,62.3908046 28.4482759,61.8850575 28.4482759,61.1724138 L28.4482759,59.9655172 C27.3908046,60.1609195 26.5862069,60.4597701 26.5862069,61.5632184 C26.5862069,62.0689655 26.8505747,62.3908046 27.3448276,62.3908046 Z M29.7586207,62.9310345 C29.2068966,62.9310345 28.8045977,62.6896552 28.6666667,62.0574713 C28.2988506,62.6436782 27.5977011,63 26.8390805,63 C25.8275862,63 25.2413793,62.4942529 25.2413793,61.6666667 C25.2413793,60.2068966 27.0114943,59.7241379 28.4597701,59.5402299 L28.4597701,58.6321839 C28.4597701,57.8850575 28.1494253,57.5402299 27.4597701,57.5402299 C26.9885057,57.5402299 26.6091954,57.7126437 26.3793103,57.954023 C26.7356322,57.9770115 26.954023,58.2413793 26.954023,58.6206897 C26.954023,59.045977 26.6436782,59.3103448 26.2183908,59.3103448 C25.7816092,59.3103448 25.4827586,59.0114943 25.4827586,58.5057471 C25.4827586,57.7356322 26.3678161,57.091954 27.5747126,57.091954 C28.9655172,57.091954 29.7471264,57.6896552 29.7471264,58.9885057 C29.7471264,59.8045977 29.7241379,60.8965517 29.7241379,61.7126437 C29.7241379,62.1954023 29.8505747,62.3448276 30.091954,62.3448276 C30.3793103,62.3448276 30.5057471,62.0689655 30.5977011,61.4252874 L30.954023,61.4482759 C30.8505747,62.4597701 30.5402299,62.9310345 29.7586207,62.9310345 Z M33.9425287,62.4482759 C34.6781609,62.4482759 35.2183908,61.6551724 35.2183908,60.2758621 L35.2183908,58.4827586 C34.9885057,57.816092 34.5517241,57.5402299 34.0229885,57.5402299 C33.183908,57.5402299 32.6896552,58.3103448 32.6896552,60.045977 C32.6896552,61.6896552 33.1149425,62.4482759 33.9425287,62.4482759 Z M35.4827586,62.7241379 L35.4482759,61.4252874 C35.183908,62.4482759 34.5172414,62.9885057 33.6321839,62.9885057 C32.4712644,62.9885057 31.2528736,62.045977 31.2528736,60.0574713 C31.2528736,58.1954023 32.5517241,57.091954 33.9655172,57.091954 C34.3908046,57.091954 34.8390805,57.1954023 35.2183908,57.4022989 L35.2183908,55.0689655 C35.2183908,54.9310345 35.1724138,54.8735632 35.0344828,54.862069 L34.2643678,54.7931034 L34.2643678,54.3563218 L36.2298851,54 L36.6206897,54.0689655 L36.5402299,55.4482759 L36.5402299,62 C36.5402299,62.1149425 36.5977011,62.1954023 36.7241379,62.2298851 L37.4252874,62.4137931 L37.4252874,62.8390805 L35.5977011,62.8390805 L35.4827586,62.7241379 Z M40.8735632,63 C39.3793103,63 38.1494253,61.8965517 38.1494253,60.045977 C38.1494253,58.1954023 39.3793103,57.091954 40.8735632,57.091954 C42.3678161,57.091954 43.5862069,58.1954023 43.5862069,60.045977 C43.5862069,61.8965517 42.3678161,63 40.8735632,63 Z M40.8735632,62.5517241 C41.7356322,62.5517241 42.1494253,61.7241379 42.1494253,60.045977 C42.1494253,58.3678161 41.7356322,57.5402299 40.8735632,57.5402299 C40.0114943,57.5402299 39.5862069,58.3678161 39.5862069,60.045977 C39.5862069,61.7241379 40.0114943,62.5517241 40.8735632,62.5517241 Z" id="La-Rado"></path>
        </g>
    </g>
</svg>