<?xml version="1.0" encoding="UTF-8"?>
<svg width="1600px" height="900px" viewBox="0 0 1600 900" version="1.1" xmlns="http://www.w3.org/2000/svg" xmlns:xlink="http://www.w3.org/1999/xlink">
    <!-- Generator: Sketch 50.2 (55047) - http://www.bohemiancoding.com/sketch -->
    <title>Artboard</title>
    <desc>Created with Sketch.</desc>
    <defs></defs>
    <g id="Artboard" stroke="none" stroke-width="1" fill="none" fill-rule="evenodd">
        <g id="Wheel" transform="translate(350.000000, -450.000000)" fill="#000000" fill-rule="nonzero">
            <path d="M449.990606,402.12766 C423.593182,402.12766 402.12766,423.595288 402.12766,449.985908 C402.12766,476.404712 423.593182,497.87234 449.990606,497.87234 C476.38803,497.87234 497.87234,476.404712 497.87234,449.985908 C497.87234,423.595288 476.38803,402.12766 449.990606,402.12766 Z M450,469.40542 C439.271936,469.40542 430.572998,460.724418 430.572998,449.995302 C430.572998,439.266186 439.28133,430.566394 450,430.566394 C460.71867,430.566394 469.408214,439.275582 469.408214,449.995302 C469.408214,460.752604 460.737458,469.40542 450,469.40542 Z" id="Shape"></path>
            <path d="M449.984958,38.2978724 C222.97693,38.2978724 38.2978724,222.986958 38.2978724,449.994986 C38.2978724,677.003014 222.97693,861.702128 449.984958,861.702128 C677.003014,861.702128 861.702128,677.003014 861.702128,449.994986 C861.702128,222.97693 677.003014,38.2978724 449.984958,38.2978724 Z M847.361822,461.206496 C845.586834,524.815276 828.879878,584.74371 800.490086,637.57219 L525.146206,469.269158 L847.361822,461.206496 Z M525.146206,428.995966 L799.828226,261.10409 C828.36844,313.752062 845.265932,373.570186 847.311682,437.068656 L525.146206,428.995966 Z M787.613896,240.265522 L505.00961,394.127966 L658.761744,111.754329 C710.958448,144.085198 755.15266,188.159071 787.613896,240.265522 Z M449.97493,395.38149 C479.638302,395.38149 503.756086,419.489246 503.756086,449.122534 C503.756086,478.775878 479.638302,502.893662 449.97493,502.893662 C420.331614,502.893662 396.223858,478.775878 396.223858,449.122534 C396.223858,419.489246 420.331614,395.38149 449.97493,395.38149 Z M262.167078,99.6101964 C314.805022,71.2805734 374.532892,54.5635886 437.941108,52.6482054 L429.888474,374.001398 L262.167078,99.6101964 Z M462.099006,52.6482054 C525.477136,54.5535604 585.194978,71.2906016 637.822894,99.6202246 L470.151638,373.971314 L462.099006,52.6482054 Z M429.888474,524.263726 L437.98122,847.341766 C374.252104,845.44644 314.213358,828.558976 261.364824,799.958592 L429.888474,524.263726 Z M470.171694,524.283782 L638.655234,799.938536 C585.806698,828.548948 525.798038,845.416354 462.088978,847.341766 L470.171694,524.283782 Z M241.258312,111.724244 L395.010446,394.148022 L112.366048,240.265522 C144.84734,188.159071 189.031523,144.065141 241.258312,111.724244 Z M52.6682616,437.078684 C54.7039832,373.580214 71.6115034,313.752062 100.161747,261.094062 L374.863822,428.995966 L52.6682616,437.078684 Z M374.853794,469.279186 L99.4898582,637.592246 C71.1100942,584.783822 54.4031378,524.825304 52.628149,461.206496 L374.853794,469.279186 Z M111.543737,658.4609 L395.000418,504.147186 L240.566368,787.81446 C188.21924,755.242914 143.964859,710.908308 111.543737,658.4609 Z M659.45369,787.824488 L505.00961,504.147186 L788.426178,658.45087 C756.03514,710.888252 711.770732,755.232886 659.45369,787.824488 Z" id="Shape"></path>
            <path d="M449.994998,0 C201.86439,0 0,201.874396 0,450.005002 C0,698.125604 201.86439,900 449.994998,900 C698.125604,900 900,698.125604 900,450.005002 C900,201.874396 698.125604,0 449.994998,0 Z M449.994998,863.429276 C222.025814,863.429276 36.5607178,677.954174 36.5607178,449.994998 C36.5607178,222.025814 222.025814,36.5607178 449.994998,36.5607178 C677.954174,36.5607178 863.429276,222.025814 863.429276,449.994998 C863.429276,677.954174 677.954174,863.429276 449.994998,863.429276 Z" id="Shape"></path>
        </g>
        <path d="M587,718.390805 L587,713.563218 L595.850575,711.724138 C597.574713,711.37931 598.149425,710.689655 598.149425,709.310345 L598.149425,649.310345 C598.149425,648.045977 597.574713,647.356322 595.850575,647.011494 L587,645.172414 L587,640.344828 L624.701149,640.344828 L624.701149,645.057471 L616.310345,646.896552 C613.896552,647.471264 613.206897,648.505747 613.206897,650.344828 L613.206897,708.735632 C613.206897,712.413793 614.126437,713.333333 618.839081,713.333333 L631.942529,713.333333 C638.264368,713.333333 640.448276,711.954023 643.091954,705.402299 L648.149425,693.103448 L654.241379,693.103448 L653.091954,718.390805 L587,718.390805 Z M683.206897,713.908046 C689.183908,713.908046 694.241379,708.850575 694.241379,701.724138 L694.241379,689.655172 C683.666667,691.609195 675.62069,694.597701 675.62069,705.632184 C675.62069,710.689655 678.264368,713.908046 683.206897,713.908046 Z M707.344828,719.310345 C701.827586,719.310345 697.804598,716.896552 696.425287,710.574713 C692.747126,716.436782 685.735632,720 678.149425,720 C668.034483,720 662.172414,714.942529 662.172414,706.666667 C662.172414,692.068966 679.873563,687.241379 694.356322,685.402299 L694.356322,676.321839 C694.356322,668.850575 691.252874,665.402299 684.356322,665.402299 C679.643678,665.402299 675.850575,667.126437 673.551724,669.54023 C677.114943,669.770115 679.298851,672.413793 679.298851,676.206897 C679.298851,680.45977 676.195402,683.103448 671.942529,683.103448 C667.574713,683.103448 664.586207,680.114943 664.586207,675.057471 C664.586207,667.356322 673.436782,660.91954 685.505747,660.91954 C699.413793,660.91954 707.229885,666.896552 707.229885,679.885057 C707.229885,688.045977 707,698.965517 707,707.126437 C707,711.954023 708.264368,713.448276 710.678161,713.448276 C713.551724,713.448276 714.816092,710.689655 715.735632,704.252874 L719.298851,704.482759 C718.264368,714.597701 715.16092,719.310345 707.344828,719.310345 Z M780.793103,678.390805 C792.172414,678.390805 798.149425,673.563218 798.149425,661.264368 C798.149425,648.275862 792.287356,645.172414 780.448276,645.172414 C777.574713,645.172414 774.931034,645.287356 772.632184,645.517241 L772.632184,678.16092 C775.505747,678.275862 778.034483,678.390805 780.793103,678.390805 Z M784.011494,713.563218 L784.011494,718.390805 L746.425287,718.390805 L746.425287,713.563218 L755.275862,711.724138 C757,711.37931 757.574713,710.689655 757.574713,709.310345 L757.574713,649.425287 C757.574713,648.16092 757,647.471264 755.275862,647.126437 L746.425287,645.287356 L746.425287,640.45977 L752.172414,640.45977 C757.91954,640.45977 771.022989,640.114943 780.218391,640.114943 C800.333333,640.114943 814.126437,645.862069 814.126437,660.91954 C814.126437,671.494253 805.850575,677.701149 796.655172,680.229885 C798.609195,682.183908 800.793103,685.287356 803.091954,690.229885 L811.712644,708.16092 C812.747126,710.229885 813.896552,711.149425 815.735632,711.494253 L824.356322,713.563218 L824.356322,718.390805 L799.413793,718.390805 L785.045977,683.103448 C783.551724,683.333333 781.942529,683.333333 780.563218,683.333333 C777.91954,683.333333 775.16092,683.218391 772.632184,682.873563 L772.632184,709.195402 C772.632184,710.574713 773.091954,711.264368 774.931034,711.609195 L784.011494,713.563218 Z M850.448276,713.908046 C856.425287,713.908046 861.482759,708.850575 861.482759,701.724138 L861.482759,689.655172 C850.908046,691.609195 842.862069,694.597701 842.862069,705.632184 C842.862069,710.689655 845.505747,713.908046 850.448276,713.908046 Z M874.586207,719.310345 C869.068966,719.310345 865.045977,716.896552 863.666667,710.574713 C859.988506,716.436782 852.977011,720 845.390805,720 C835.275862,720 829.413793,714.942529 829.413793,706.666667 C829.413793,692.068966 847.114943,687.241379 861.597701,685.402299 L861.597701,676.321839 C861.597701,668.850575 858.494253,665.402299 851.597701,665.402299 C846.885057,665.402299 843.091954,667.126437 840.793103,669.54023 C844.356322,669.770115 846.54023,672.413793 846.54023,676.206897 C846.54023,680.45977 843.436782,683.103448 839.183908,683.103448 C834.816092,683.103448 831.827586,680.114943 831.827586,675.057471 C831.827586,667.356322 840.678161,660.91954 852.747126,660.91954 C866.655172,660.91954 874.471264,666.896552 874.471264,679.885057 C874.471264,688.045977 874.241379,698.965517 874.241379,707.126437 C874.241379,711.954023 875.505747,713.448276 877.91954,713.448276 C880.793103,713.448276 882.057471,710.689655 882.977011,704.252874 L886.54023,704.482759 C885.505747,714.597701 882.402299,719.310345 874.586207,719.310345 Z M916.425287,714.482759 C923.781609,714.482759 929.183908,706.551724 929.183908,692.758621 L929.183908,674.827586 C926.885057,668.16092 922.517241,665.402299 917.229885,665.402299 C908.83908,665.402299 903.896552,673.103448 903.896552,690.45977 C903.896552,706.896552 908.149425,714.482759 916.425287,714.482759 Z M931.827586,717.241379 L931.482759,704.252874 C928.83908,714.482759 922.172414,719.885057 913.321839,719.885057 C901.712644,719.885057 889.528736,710.45977 889.528736,690.574713 C889.528736,671.954023 902.517241,660.91954 916.655172,660.91954 C920.908046,660.91954 925.390805,661.954023 929.183908,664.022989 L929.183908,640.689655 C929.183908,639.310345 928.724138,638.735632 927.344828,638.62069 L919.643678,637.931034 L919.643678,633.563218 L939.298851,630 L943.206897,630.689655 L942.402299,644.482759 L942.402299,710 C942.402299,711.149425 942.977011,711.954023 944.241379,712.298851 L951.252874,714.137931 L951.252874,718.390805 L932.977011,718.390805 L931.827586,717.241379 Z M985.735632,720 C970.793103,720 958.494253,708.965517 958.494253,690.45977 C958.494253,671.954023 970.793103,660.91954 985.735632,660.91954 C1000.67816,660.91954 1012.86207,671.954023 1012.86207,690.45977 C1012.86207,708.965517 1000.67816,720 985.735632,720 Z M985.735632,715.517241 C994.356322,715.517241 998.494253,707.241379 998.494253,690.45977 C998.494253,673.678161 994.356322,665.402299 985.735632,665.402299 C977.114943,665.402299 972.862069,673.678161 972.862069,690.45977 C972.862069,707.241379 977.114943,715.517241 985.735632,715.517241 Z" id="La-Rado" fill="#000000" fill-rule="nonzero"></path>
    </g>
</svg>