<?xml version="1.0" encoding="UTF-8"?>
<svg width="1600px" height="900px" viewBox="0 0 1600 900" version="1.1" xmlns="http://www.w3.org/2000/svg" xmlns:xlink="http://www.w3.org/1999/xlink">
    <!-- Generator: Sketch 50.2 (55047) - http://www.bohemiancoding.com/sketch -->
    <title>iom</title>
    <desc>Created with Sketch.</desc>
    <defs></defs>
    <g id="iom" stroke="none" stroke-width="1" fill="none" fill-rule="evenodd">
        <g id="noun_1255853" transform="translate(736.000000, 386.000000)" fill="#FC7D51">
            <path d="M99.471547,4.66044892 C98.2626183,4.75492576 97.3394526,5.77988484 97.3712438,6.99234314 L97.4169135,8.55013616 C97.5141899,12.1566714 97.5297176,14.8173873 97.0255242,16.9889809 C96.5214679,19.1605746 95.5786172,20.9645272 93.3143141,23.229287 L96.5360365,26.4512834 C99.2484963,23.738504 100.781308,20.9736611 101.46649,18.0215726 C102.055721,15.4827947 101.970455,12.7517474 101.902636,9.76997351 L105.453637,10.5796971 C105.573748,17.1310137 103.167732,23.2987049 98.6897733,27.7775311 L97.8621016,28.6059793 L101.083824,31.8279757 L101.911496,31.0004409 C107.338744,25.5721419 110.256672,18.0955575 110.045906,10.2595526 L110.000237,8.70175953 C109.973459,7.6605888 109.244419,6.77003879 108.229212,6.53838645 L100.157049,4.70429181 C99.93271,4.65146472 99.7016564,4.63298659 99.4717754,4.64948819 L99.471547,4.66044892 Z" id="Shape"></path>
            <path d="M61.282509,0.218158452 C52.9930954,-0.0832614832 44.5478569,2.70487291 37.3687648,8.81730383 L37.3504969,8.81730383 L37.3230951,8.81730383 L31.8497201,13.7222282 C29.0540959,16.2231003 28.9307877,20.6389023 31.5825524,23.2918545 L104.721095,96.4460159 C107.372586,99.0994248 111.787611,98.9747465 114.288346,96.1765648 L119.183223,90.6934622 C131.259796,77.1861955 130.68518,56.5407568 117.874969,43.7276693 L84.2604357,10.1056457 L84.2421678,10.1056457 C77.7029537,3.88132405 69.5700958,0.49720024 61.2806365,0.198520486 L61.282509,0.218158452 Z M61.1491535,4.66044892 C68.3046344,4.9253331 75.3154338,7.91989448 81.1025138,13.4285721 L114.654709,46.9880283 C125.787243,58.1227547 126.288787,75.9576809 115.793893,87.6957039 L110.890111,93.1792632 C110.091119,94.0725623 108.791406,94.1072713 107.944324,93.2614687 L34.8057819,20.1073072 C33.9583809,19.2596778 33.9925875,17.9507846 34.8861606,17.151565 L40.3239132,12.2913969 C46.6959763,6.8662948 53.9939923,4.39876161 61.1494732,4.6627324 L61.1491535,4.66044892 Z" id="Shape"></path>
            <path d="M35.0637243,21.3152704 C34.4681665,21.3321212 33.90281,21.5812564 33.4884398,22.0094496 L18.6435994,36.8667123 C7.32623986,48.1900545 1.05825799,62.4819263 0.123125476,76.4970399 C-0.34439511,83.5050534 0.517711573,90.4500427 2.76634996,96.9086499 C3.89060064,100.13841 5.36125591,103.245319 7.1806449,106.175486 C7.53275819,106.74316 7.82522687,108.695996 8.03503341,110.884488 C8.24465727,113.072979 8.38303642,115.683915 10.3845561,117.685161 C12.3858475,119.68732 14.9870559,119.817022 17.1751362,120.026645 C19.3631709,120.236726 21.3155957,120.529012 21.8831329,120.881125 C24.8130717,122.701062 27.9189301,124.171626 31.147777,125.296471 C37.6057448,127.546159 44.5484506,128.416624 51.5550483,127.949423 C65.5681981,127.014564 79.8575125,120.746856 91.1769271,109.424428 L106.030719,94.5676217 C106.636047,93.9979248 106.883852,93.1441064 106.677604,92.3387625 C106.471355,91.5334187 105.843671,90.90391 105.039058,90.6954549 C104.234445,90.4869998 103.380148,90.7325643 102.808951,91.3364913 L87.9552047,106.193297 C77.3987479,116.751672 64.1176832,122.533455 51.252441,123.391588 C44.8198199,123.820883 38.4942942,123.021664 32.6518625,120.987992 C29.7302813,119.970472 26.9320539,118.646508 24.2949948,117.008793 C22.0789646,115.632308 19.6755516,115.684372 17.6112361,115.486622 C15.5469205,115.290242 13.9975307,114.845419 13.6062785,114.454487 C13.215346,114.061728 12.7807533,112.512612 12.5828208,110.448342 C12.3850711,108.383615 12.4366778,105.988697 11.0609699,103.77189 C9.4235289,101.134923 8.0999757,98.326237 7.08272909,95.4047471 C5.04837288,89.5613106 4.2417092,83.2337755 4.67086725,76.7998299 C5.52945736,63.9323956 11.310509,50.6585011 21.8653218,40.0982993 L36.7190678,25.2323595 C37.3925313,24.5763504 37.5949258,23.5744102 37.228927,22.7083363 C36.8629282,21.8422624 36.003426,21.2892688 35.0637243,21.3152704 Z" id="Shape"></path>
            <polygon id="Shape" points="69.5148355 4.25946906 62.5551862 53.0146002 67.0673513 53.6644799 74.0270462 4.90980541"></polygon>
            <polygon id="Shape" points="81.5384767 12.5736356 74.1071508 64.5685744 78.6193159 65.218454 86.0417818 13.214838"></polygon>
            <polygon id="Shape" points="116.194234 47.2373848 109.465993 94.3625648 113.978249 95.0124445 120.70649 47.8781305"></polygon>
            <polygon id="Shape" points="104.64236 35.6824973 97.2109888 87.68657 101.7232 88.3273157 109.154525 36.3236997"></polygon>
            <polygon id="Shape" points="93.0903957 24.1285231 85.6590698 76.1234619 90.1712806 76.7733415 97.6026064 24.7692688"></polygon>
            <polygon id="Shape" points="122.637724 77.672121 95.0216297 81.6243757 95.6624668 86.1379109 123.287421 82.1856561"></polygon>
            <polygon id="Shape" points="125.708143 64.0346957 83.4697107 70.0704016 84.1105021 74.5748028 126.35784 68.5390969"></polygon>
            <polygon id="Shape" points="122.459704 51.2878293 73.3595381 58.3017799 74.0003294 62.8153151 123.109401 55.8004511"></polygon>
            <polygon id="Shape" points="112.349531 39.5283416 60.3569671 46.9524059 61.0066641 51.4654844 112.999228 44.0414201"></polygon>
            <polygon id="Shape" points="76.2430764 5.06097207 36.354167 10.7669428 36.995004 15.2800213 76.8927277 9.57405055"></polygon>
            <polygon id="Shape" points="89.245693 16.410346 37.2530834 23.8435443 37.9027347 28.3566228 89.8864844 20.9238812"></polygon>
            <polygon id="Shape" points="100.797612 27.9739108 48.8050024 35.3975184 49.4546994 39.9110536 101.447309 32.478312"></polygon>
            <polygon id="Shape" points="42.8955733 5.7286629 39.4513482 29.9057385 43.9546077 30.5464843 47.4077384 6.37854254"></polygon>
            <polygon id="Shape" points="56.6546169 1.84719619 51.0032215 41.4597127 55.5154779 42.1013718 61.1668277 2.49707584"></polygon>
            <path d="M34.1025601,39.7420758 C33.5101157,39.761224 32.9483632,40.0101784 32.5361812,40.436255 L26.9827015,45.991059 C18.4205486,54.5577789 13.6658775,65.3782979 12.9565816,76.0074609 C12.6021848,81.3220424 13.2584582,86.5873006 14.9679659,91.4963353 C15.2323304,92.2710703 15.8909313,92.845104 16.6943794,93.0010699 C17.4978275,93.1570357 18.3232958,92.8710904 18.8582084,92.2515114 C19.393121,91.6319325 19.5557032,90.773438 19.2843907,90.0011097 C17.7893935,85.7077024 17.1970577,81.0512211 17.5132746,76.3102509 C18.1459824,66.8287672 22.4048634,57.0257688 30.2044239,49.2221894 L35.7667635,43.6587081 C36.441239,43.0015474 36.642964,41.9975285 36.2746712,41.1307668 C35.9063783,40.2640052 35.043684,39.7124607 34.1025601,39.7420758 Z" id="Shape"></path>
        </g>
    </g>
</svg>