<?xml version="1.0" encoding="UTF-8"?>
<svg width="1600px" height="900px" viewBox="0 0 1600 900" version="1.1" xmlns="http://www.w3.org/2000/svg" xmlns:xlink="http://www.w3.org/1999/xlink">
    <!-- Generator: Sketch 50.2 (55047) - http://www.bohemiancoding.com/sketch -->
    <title>iom</title>
    <desc>Created with Sketch.</desc>
    <defs></defs>
    <g id="iom" stroke="none" stroke-width="1" fill="none" fill-rule="evenodd">
        <g id="Group" transform="translate(338.000000, 194.000000)">
            <circle id="Oval-2" stroke="#EDD069" stroke-width="16" cx="256" cy="256" r="256"></circle>
            <g id="noun_1255853" transform="translate(130.000000, 126.000000)" fill="#FC7D51">
                <path d="M198.943094,9.32089783 C196.525237,9.50985153 194.678905,11.5597697 194.742488,13.9846863 L194.833827,17.1002723 C195.02838,24.3133427 195.059435,29.6347746 194.051048,33.9779619 C193.042936,38.3211491 191.157234,41.9290544 186.628628,46.458574 L193.072073,52.9025668 C198.496993,47.477008 201.562616,41.9473223 202.932981,36.0431451 C204.111441,30.9655893 203.940911,25.5034948 203.805272,19.539947 L210.907273,21.1593941 C211.147496,34.2620273 206.335464,46.5974098 197.379547,55.5550623 L195.724203,57.2119585 L202.167648,63.6559514 L203.822991,62.0008819 C214.677489,51.1442839 220.513344,36.1911149 220.091813,20.5191051 L220.000473,17.4035191 C219.946919,15.3211776 218.488838,13.5400776 216.458424,13.0767729 L200.314098,9.40858363 C199.86542,9.30292944 199.403313,9.26597317 198.943551,9.29897638 L198.943094,9.32089783 Z" id="Shape"></path>
                <path d="M122.565018,0.436316903 C105.986191,-0.166522966 89.0957138,5.40974583 74.7375295,17.6346077 L74.7009938,17.6346077 L74.6461902,17.6346077 L63.6994402,27.4444565 C58.1081917,32.4462006 57.8615754,41.2778047 63.1651048,46.5837089 L209.44219,192.892032 C214.745171,198.19885 223.575222,197.949493 228.576693,192.35313 L238.366447,181.386924 C262.519591,154.372391 261.370359,113.081514 235.749939,87.4553387 L168.520871,20.2112914 L168.484336,20.2112914 C155.405907,7.76264811 139.140192,0.99440048 122.561273,0.397040972 L122.565018,0.436316903 Z M122.298307,9.32089783 C136.609269,9.8506662 150.630868,15.839789 162.205028,26.8571443 L229.309417,93.9760566 C251.574486,116.245509 252.577575,151.915362 231.587786,175.391408 L221.780221,186.358526 C220.182239,188.145125 217.582811,188.214543 215.888649,186.522937 L69.6115639,40.2146144 C67.9167618,38.5193556 67.985175,35.9015691 69.7723212,34.3031301 L80.6478264,24.5827939 C93.3919526,13.7325896 107.987985,8.79752322 122.298946,9.3254648 L122.298307,9.32089783 Z" id="Shape"></path>
                <path d="M70.1274486,42.6305408 C68.936333,42.6642424 67.80562,43.1625127 66.9768796,44.0188993 L37.2871987,73.7334245 C14.6524797,96.3801089 2.11651598,124.963853 0.246250953,152.99408 C-0.688790221,167.010107 1.03542315,180.900085 5.53269991,193.8173 C7.78120129,200.27682 10.7225118,206.490638 14.3612898,212.350972 C15.0655164,213.486321 15.6504537,217.391992 16.0700668,221.768975 C16.4893145,226.145958 16.7660728,231.36783 20.7691123,235.370321 C24.771695,239.374639 29.9741117,239.634043 34.3502725,240.053291 C38.7263419,240.473452 42.6311915,241.058024 43.7662659,241.762251 C49.6261434,245.402125 55.8378602,248.343253 62.295554,250.592941 C75.2114895,255.092319 89.0969012,256.833247 103.110097,255.898846 C131.136396,254.029129 159.715025,241.493713 182.353854,218.848855 L212.061438,189.135243 C213.272095,187.99585 213.767704,186.288213 213.355208,184.677525 C212.942711,183.066837 211.687341,181.80782 210.078115,181.39091 C208.468889,180.974 206.760296,181.465129 205.617901,182.672983 L175.910409,212.386595 C154.797496,233.503344 128.235366,245.066909 102.504882,246.783176 C89.6396398,247.641766 76.9885884,246.043327 65.3037249,241.975985 C59.4605625,239.940944 53.8641077,237.293015 48.5899896,234.017585 C44.1579291,231.264616 39.3511032,231.368743 35.2224722,230.973244 C31.0938411,230.580484 27.9950615,229.690839 27.2125571,228.908974 C26.430692,228.123455 25.5615065,225.025224 25.1656417,220.896684 C24.7701422,216.767231 24.8733557,211.977394 22.1219397,207.543781 C18.8470578,202.269845 16.1999514,196.652474 14.1654582,190.809494 C10.0967458,179.122621 8.4834184,166.467551 9.34173449,153.59966 C11.0589147,127.864791 22.6210181,101.317002 43.7306435,80.1965986 L73.4381356,50.4647189 C74.7850626,49.1527007 75.1898516,47.1488205 74.457854,45.4166726 C73.7258564,43.6845248 72.006852,42.5785376 70.1274486,42.6305408 Z" id="Shape"></path>
                <polygon id="Shape" points="139.029671 8.51893812 125.110372 106.0292 134.134703 107.32896 148.054092 9.81961081"></polygon>
                <polygon id="Shape" points="163.076953 25.1472712 148.214302 129.137149 157.238632 130.436908 172.083564 26.429676"></polygon>
                <polygon id="Shape" points="232.388467 94.4747696 218.931985 188.72513 227.956498 190.024889 241.41298 95.756261"></polygon>
                <polygon id="Shape" points="209.284721 71.3649945 194.421978 175.37314 203.446399 176.654631 218.309051 72.6473993"></polygon>
                <polygon id="Shape" points="186.180791 48.2570463 171.31814 152.246924 180.342561 153.546683 195.205213 49.5385377"></polygon>
                <polygon id="Shape" points="245.275448 155.344242 190.043259 163.248751 191.324934 172.275822 246.574842 164.371312"></polygon>
                <polygon id="Shape" points="251.416286 128.069391 166.939421 140.140803 168.221004 149.149606 252.71568 137.078194"></polygon>
                <polygon id="Shape" points="244.919407 102.575659 146.719076 116.60356 148.000659 125.63063 246.218801 111.600902"></polygon>
                <polygon id="Shape" points="224.699062 79.0566832 120.713934 93.9048119 122.013328 102.930969 225.998456 88.0828402"></polygon>
                <polygon id="Shape" points="152.486153 10.1219441 72.708334 21.5338856 73.9900081 30.5600425 153.785455 19.1481011"></polygon>
                <polygon id="Shape" points="178.491386 32.820692 74.5061669 47.6870886 75.8054695 56.7132455 179.772969 41.8477624"></polygon>
                <polygon id="Shape" points="201.595224 55.9478216 97.6100049 70.7950368 98.9093988 79.8221072 202.894618 64.956624"></polygon>
                <polygon id="Shape" points="85.7911466 11.4573258 78.9026963 59.8114771 87.9092153 61.0929685 94.8154767 12.7570851"></polygon>
                <polygon id="Shape" points="113.309234 3.69439238 102.006443 82.9194254 111.030956 84.2027436 122.333655 4.99415168"></polygon>
                <path d="M68.2051202,79.4841515 C67.0202314,79.5224479 65.8967263,80.0203568 65.0723623,80.87251 L53.9654031,91.9821181 C36.8410972,109.115558 27.331755,130.756596 25.9131631,152.014922 C25.2043696,162.644085 26.5169164,173.174601 29.9359319,182.992671 C30.4646608,184.542141 31.7818625,185.690208 33.3887587,186.00214 C34.9956549,186.314071 36.6465916,185.742181 37.7164168,184.503023 C38.786242,183.263865 39.1114064,181.546876 38.5687815,180.002219 C35.5787871,171.415405 34.3941154,162.102442 35.0265492,152.620502 C36.2919649,133.657534 44.8097269,114.051538 60.4088479,98.4443788 L71.533527,87.3174162 C72.8824781,86.0030949 73.285928,83.995057 72.5493423,82.2615337 C71.8127566,80.5280103 70.0873679,79.4249213 68.2051202,79.4841515 Z" id="Shape"></path>
            </g>
            <path d="M642.113016,302.049524 L642.113016,212.408889 L665.76254,212.408889 L665.76254,302.049524 L642.113016,302.049524 Z M653.978413,199.893333 C645.445079,199.893333 640,194.935873 640,187.946667 C640,180.87619 645.445079,176 653.978413,176 C662.430476,176 667.956825,180.87619 667.956825,187.946667 C667.956825,194.935873 662.430476,199.893333 653.978413,199.893333 Z M729.396825,304 C701.846349,304 685.267302,286.526984 685.267302,257.188571 C685.267302,228.175238 702.090159,210.458413 729.396825,210.458413 C756.703492,210.458413 773.526349,228.093968 773.526349,257.188571 C773.526349,286.526984 756.947302,304 729.396825,304 Z M729.396825,284.657778 C741.993651,284.657778 749.226667,274.580317 749.226667,257.188571 C749.226667,239.959365 741.912381,229.800635 729.396825,229.800635 C716.8,229.800635 709.566984,239.959365 709.566984,257.188571 C709.566984,274.661587 716.71873,284.657778 729.396825,284.657778 Z M792.787302,302.049524 L792.787302,212.408889 L815.705397,212.408889 L815.705397,227.03746 L817.168254,227.03746 C820.825397,216.79746 830.171429,210.458413 841.955556,210.458413 C854.552381,210.458413 863.166984,216.634921 866.742857,227.03746 L868.205714,227.03746 C872.350476,217.04127 882.671746,210.458413 895.187302,210.458413 C913.066667,210.458413 924.200635,222.08 924.200635,240.528254 L924.200635,302.049524 L900.551111,302.049524 L900.551111,246.786032 C900.551111,236.139683 895.593651,230.857143 885.59746,230.857143 C876.007619,230.857143 869.831111,237.68381 869.831111,247.192381 L869.831111,302.049524 L847.075556,302.049524 L847.075556,245.810794 C847.075556,236.302222 841.549206,230.857143 832.284444,230.857143 C823.019683,230.857143 816.436825,238.090159 816.436825,248.086349 L816.436825,302.049524 L792.787302,302.049524 Z" id="iom" fill="#000000"></path>
        </g>
    </g>
</svg>