<?xml version="1.0" encoding="UTF-8"?>
<svg width="512px" height="512px" viewBox="0 0 512 512" version="1.1" xmlns="http://www.w3.org/2000/svg" xmlns:xlink="http://www.w3.org/1999/xlink">
    <!-- Generator: Sketch 50.2 (55047) - http://www.bohemiancoding.com/sketch -->
    <title>iom</title>
    <desc>Created with Sketch.</desc>
    <defs></defs>
    <g id="iom" stroke="none" stroke-width="1" fill="none" fill-rule="evenodd">
        <g id="noun_1255853" transform="translate(51.000000, 51.000000)" fill="#FC7D51">
            <path d="M318.619799,14.9280004 C314.747449,15.2306216 311.790434,18.5136936 311.892265,22.3973491 L312.038551,27.3871549 C312.35014,38.9393379 312.399877,47.4619438 310.784882,54.4178296 C309.170327,61.3737154 306.150258,67.1520012 298.897412,74.4063099 L309.216992,84.7267672 C317.90534,76.0373956 322.815127,67.1812584 325.009852,57.7253496 C326.89723,49.5933267 326.624115,40.8454408 326.40688,31.2944464 L337.78118,33.8880921 C338.165911,54.8727782 330.459141,74.6286642 316.11568,88.9749044 L313.464544,91.6285273 L323.784124,101.948985 L326.43526,99.2982874 C343.819415,81.9107671 353.165902,57.9623325 352.490794,32.8626293 L352.344508,27.8728235 C352.258737,24.5378235 349.92353,21.6852805 346.671694,20.9432691 L320.815548,15.0684347 C320.096962,14.8992229 319.356868,14.8400352 318.62053,14.8928919 L318.619799,14.9280004 Z" id="Shape"></path>
            <path d="M196.295537,0.69878879 C169.743509,-0.266696938 142.692354,8.66404605 119.696825,28.2429263 L119.63831,28.2429263 L119.550539,28.2429263 L102.018635,43.9540123 C93.0639008,51.9646181 92.6689294,66.1089841 101.162863,74.6067213 L335.434757,308.928645 C343.927813,317.427845 358.069692,317.028485 366.079859,308.065559 L381.758762,290.502496 C420.441533,247.237032 418.600966,181.107111 377.568262,140.065191 L269.896708,32.3696464 L269.838194,32.3696464 C248.892273,12.4323661 222.841713,1.59259452 196.289539,0.635885932 L196.295537,0.69878879 Z M195.868382,14.9280004 C218.788282,15.7764576 241.244749,25.368412 259.78149,43.0133951 L367.253363,150.508528 C402.912262,186.174449 404.518772,243.301947 370.902314,280.900302 L355.194885,298.464828 C352.635617,301.326176 348.472471,301.437353 345.759164,298.728142 L111.48727,64.4062183 C108.772939,61.6911554 108.882507,57.4986068 111.744733,54.9386067 L129.162534,39.3708808 C149.573049,21.9936005 172.949507,14.0897833 195.869406,14.9353147 L195.868382,14.9280004 Z" id="Shape"></path>
            <path d="M112.313492,68.2754755 C110.405846,68.3294507 108.594938,69.1274618 107.267659,70.4990184 L59.7177792,118.088688 C23.4668621,154.358768 3.38973262,200.13742 0.394386292,245.029581 C-1.10314059,267.477124 1.65829488,289.722793 8.8609647,310.410519 C12.4620802,320.755845 17.1727728,330.707662 23.0005032,340.093354 C24.1283661,341.911685 25.0651798,348.166863 25.7372164,355.176874 C26.4086678,362.186886 26.8519135,370.55004 33.2630314,376.96028 C39.6734177,383.373446 48.0054133,383.788897 55.0141082,384.460349 C62.0226569,385.133263 68.2765176,386.069492 70.0944102,387.197355 C79.4793703,393.02684 89.427823,397.73724 99.7702232,401.340258 C120.455901,408.546292 142.694256,411.334498 165.137264,409.837995 C210.023135,406.843526 255.793595,386.767275 292.051095,350.50012 L339.629646,302.911913 C341.568589,301.087103 342.362339,298.352216 341.7017,295.772599 C341.04106,293.192982 339.030508,291.176587 336.453231,290.508879 C333.875955,289.841171 331.139537,290.627745 329.30992,292.562199 L281.731515,340.150405 C247.917864,373.9702 205.376954,392.489972 164.167975,395.23868 C143.563486,396.613766 123.302036,394.053766 104.587997,387.539663 C95.2298071,384.280417 86.266735,380.039594 77.8199052,374.793789 C70.7216833,370.384737 63.0232512,370.551503 56.4109906,369.918086 C49.7987299,369.289057 44.8358407,367.864234 43.5826109,366.612029 C42.3304052,365.353971 40.9383503,360.39196 40.304348,353.779845 C39.6709309,347.166268 39.8362337,339.495045 35.4296691,332.394337 C30.184741,323.947799 25.9452347,314.951228 22.6868666,305.59333 C16.1705694,286.876073 13.5867248,266.608187 14.9613717,245.999455 C17.7115431,204.783455 36.2289743,162.265511 70.0373588,128.439865 L117.615764,80.8224014 C119.772952,78.7211223 120.421247,75.5117828 119.248907,72.7376397 C118.076567,69.9634967 115.323474,68.1921891 112.313492,68.2754755 Z" id="Shape"></path>
            <polygon id="Shape" points="222.664707 13.6436118 200.372081 169.812391 214.825109 171.894037 237.117882 15.7267204"></polygon>
            <polygon id="Shape" points="261.177933 40.2749265 237.374468 206.821215 251.827496 208.90286 275.602582 42.328778"></polygon>
            <polygon id="Shape" points="372.184655 151.307248 350.633258 302.25509 365.086579 304.336736 386.637976 153.359637"></polygon>
            <polygon id="Shape" points="335.18256 114.295499 311.378949 280.871044 325.832124 282.923433 349.635589 116.349351"></polygon>
            <polygon id="Shape" points="298.180174 77.2866756 274.376708 243.832964 288.829883 245.91461 312.633349 79.3390642"></polygon>
            <polygon id="Shape" points="392.82396 248.793512 304.366158 261.453078 306.418839 275.910496 394.905021 263.25093"></polygon>
            <polygon id="Shape" points="402.658895 205.111135 267.363917 224.444255 269.416452 238.872415 404.739956 219.539295"></polygon>
            <polygon id="Shape" points="392.253738 164.281328 234.97977 186.747889 237.032305 201.205306 394.334799 178.73582"></polygon>
            <polygon id="Shape" points="359.869592 126.614219 193.33091 150.394425 195.411971 164.85038 361.950652 141.070174"></polygon>
            <polygon id="Shape" points="244.216104 16.2109262 116.446941 34.4878636 118.499622 48.9438181 246.297019 30.6668807"></polygon>
            <polygon id="Shape" points="285.865111 52.5643896 119.326283 76.3738528 121.407197 90.8298073 287.917645 67.0218069"></polygon>
            <polygon id="Shape" points="322.867351 89.603933 156.328523 113.382676 158.409584 127.840094 324.948412 104.032093"></polygon>
            <polygon id="Shape" points="137.399883 18.3496233 126.3676 95.7918188 140.792103 97.8442074 151.852912 20.4312691"></polygon>
            <polygon id="Shape" points="181.47182 5.9168003 163.369694 132.800642 177.823015 134.855957 195.924995 7.99844604"></polygon>
            <path d="M109.234763,127.298836 C107.337089,127.360171 105.537726,128.157603 104.217455,129.522379 L86.4289659,147.315111 C59.0033197,174.755386 43.7735138,209.41486 41.5015503,243.461398 C40.3663732,260.484667 42.4684989,277.349947 47.9442659,293.074199 C48.7910583,295.555772 50.9006392,297.394474 53.4741839,297.894052 C56.0477286,298.39363 58.6918069,297.477711 60.4051988,295.493123 C62.1185907,293.508534 62.6393617,290.758669 61.7703141,288.284805 C56.9816511,274.532484 55.0843254,259.617193 56.0972077,244.431272 C58.12385,214.060895 71.7655782,182.660666 96.7485454,157.664825 L114.565414,139.844299 C116.725844,137.739332 117.371994,134.523334 116.192306,131.746988 C115.012618,128.970642 112.2493,127.203976 109.234763,127.298836 Z" id="Shape"></path>
        </g>
    </g>
</svg>